<?xml version="1.0" encoding="UTF-8"?>
<!-- (c) Carrd Inc. All rights reserved. All logos and trademarks are property of their respective owners. -->
<svg xmlns="http://www.w3.org/2000/svg" version="1.1" xmlns:xlink="http://www.w3.org/1999/xlink" viewBox="0 0 40 40" display="none" width="0" height="0">
	<symbol id="arrow-right-light" viewBox="0 0 40 40"><path d="M34.1,19.9c0,0.3-0.1,0.3-0.1,0.4L21.3,33.1c-0.1,0.1-0.1,0.1-0.4,0.1c-0.3,0-0.3-0.1-0.4-0.1L19,31.6 c-0.1-0.1-0.1-0.1-0.1-0.4s0.1-0.3,0.1-0.4l9.2-9.2H5.8c-0.1,0-0.2,0-0.2,0c0,0,0,0,0,0c-0.1-0.1-0.1-0.2-0.1-0.4v-2.5 c0-0.2,0.1-0.4,0.1-0.5c0,0,0.1,0,0.2,0h22.4L19,9c-0.1-0.1-0.1-0.1-0.1-0.4c0-0.3,0.1-0.3,0.1-0.4l1.5-1.5c0.1-0.1,0.1-0.1,0.4-0.1 c0.3,0,0.3,0.1,0.4,0.1L34,19.5C34,19.6,34.1,19.6,34.1,19.9z"/></symbol>
	<symbol id="instagram" viewBox="0 0 40 40"><path d="M20,7c4.2,0,4.7,0,6.3,0.1c1.5,0.1,2.3,0.3,3,0.5C30,8,30.5,8.3,31.1,8.9c0.5,0.5,0.9,1.1,1.2,1.8c0.2,0.5,0.5,1.4,0.5,3 C33,15.3,33,15.8,33,20s0,4.7-0.1,6.3c-0.1,1.5-0.3,2.3-0.5,3c-0.3,0.7-0.6,1.2-1.2,1.8c-0.5,0.5-1.1,0.9-1.8,1.2 c-0.5,0.2-1.4,0.5-3,0.5C24.7,33,24.2,33,20,33s-4.7,0-6.3-0.1c-1.5-0.1-2.3-0.3-3-0.5C10,32,9.5,31.7,8.9,31.1 C8.4,30.6,8,30,7.7,29.3c-0.2-0.5-0.5-1.4-0.5-3C7,24.7,7,24.2,7,20s0-4.7,0.1-6.3c0.1-1.5,0.3-2.3,0.5-3C8,10,8.3,9.5,8.9,8.9 C9.4,8.4,10,8,10.7,7.7c0.5-0.2,1.4-0.5,3-0.5C15.3,7.1,15.8,7,20,7z M20,4.3c-4.3,0-4.8,0-6.5,0.1c-1.6,0-2.8,0.3-3.8,0.7 C8.7,5.5,7.8,6,6.9,6.9C6,7.8,5.5,8.7,5.1,9.7c-0.4,1-0.6,2.1-0.7,3.8c-0.1,1.7-0.1,2.2-0.1,6.5s0,4.8,0.1,6.5 c0,1.6,0.3,2.8,0.7,3.8c0.4,1,0.9,1.9,1.8,2.8c0.9,0.9,1.7,1.4,2.8,1.8c1,0.4,2.1,0.6,3.8,0.7c1.6,0.1,2.2,0.1,6.5,0.1 s4.8,0,6.5-0.1c1.6-0.1,2.9-0.3,3.8-0.7c1-0.4,1.9-0.9,2.8-1.8c0.9-0.9,1.4-1.7,1.8-2.8c0.4-1,0.6-2.1,0.7-3.8 c0.1-1.6,0.1-2.2,0.1-6.5s0-4.8-0.1-6.5c-0.1-1.6-0.3-2.9-0.7-3.8c-0.4-1-0.9-1.9-1.8-2.8c-0.9-0.9-1.7-1.4-2.8-1.8 c-1-0.4-2.1-0.6-3.8-0.7C24.8,4.3,24.3,4.3,20,4.3L20,4.3L20,4.3z"/><path d="M20,11.9c-4.5,0-8.1,3.7-8.1,8.1s3.7,8.1,8.1,8.1s8.1-3.7,8.1-8.1S24.5,11.9,20,11.9z M20,25.2c-2.9,0-5.2-2.3-5.2-5.2 s2.3-5.2,5.2-5.2s5.2,2.3,5.2,5.2S22.9,25.2,20,25.2z"/><path d="M30.6,11.6c0,1-0.8,1.9-1.9,1.9c-1,0-1.9-0.8-1.9-1.9s0.8-1.9,1.9-1.9C29.8,9.7,30.6,10.5,30.6,11.6z"/></symbol>
	<symbol id="email" viewBox="0 0 40 40"><path d="M37.5,12.6l-17.5,11.9L2.5,12.6c-.2-.1-.3-.2-.5-.2v-2.7c0-.8.6-1.4,1.4-1.4h33.1c.8,0,1.4.6,1.4,1.4v2.7c-.2,0-.4,0-.5.2ZM19.5,26.3c.2.1.3.2.5.2s.4,0,.5-.2l17.5-11.9v16.9c0,.8-.6,1.4-1.4,1.4H3.4c-.8,0-1.4-.6-1.4-1.4V14.4l17.5,11.9Z" /></symbol>
	<symbol id="phone" viewBox="0 0 40 40"><path d="M11.2,3.6c1.3-.1,1.8.5,2.4,1.5,1,1.6,2.2,3.6,3,5.3.5.9.5,1.6,0,2.6-.7,1.3-3.1,2.3-3.3,3.6,0,.5.4,1.3.7,1.8,1.6,3.1,4.3,6.5,7.2,8.5.6.4,1.3,1,2.1.9,1.7-.2,2.4-3.4,4.8-3.2,1,0,2.5,1.4,3.4,2,1,.7,2.2,1.5,3.1,2.3,1.5,1.4.8,3-.2,4.4-3.6,4.7-8.3,3.4-12.8.9-6.4-3.5-11.5-9.3-14.4-16-1.4-3.4-2.7-7.8-.6-11.2.9-1.4,2.9-3.2,4.6-3.4Z" /></symbol>
	<symbol id="music" viewBox="0 0 40 40"><path d="M30.4,22.9v-14.8l-15.6,4v20.3c-.3,4.3-5,7.1-8.9,5.2-3.2-1.5-3.8-5.4-1.6-8.1,2-2.3,5.2-3,8-1.7V7.7c0-.4.4-.9.7-1L31.5,1.8c.7,0,1.2.2,1.4.9,0,8.4.1,16.9,0,25.3-.6,3.8-4.9,6.2-8.5,4.8-3.2-1.3-4.4-4.9-2.4-7.7,1.8-2.7,5.6-3.6,8.5-2.1Z" /></symbol>
</svg>
